<?xml version="1.0" encoding="UTF-8"?>
<svg id="Layer_1" data-name="Layer 1" xmlns="http://www.w3.org/2000/svg" viewBox="0 0 346.71 333.53">
  <defs>
    <style>
      .cls-1 {
        fill: #090c11;
      }

      .cls-2 {
        fill: #c3ea67;
      }
    </style>
  </defs>
  <path class="cls-1" d="M67.96,0h210.54c37.53,0,67.96,30.43,67.96,67.96l.26,197.61c0,37.53-30.68,67.96-68.21,67.96H67.96c-37.53,0-67.96-30.43-67.96-67.96V67.96C0,30.43,30.43,0,67.96,0Z"/>
  <path class="cls-2" d="M43.92,159.46l118.92,118.92,31.25-31.25-27.11-27.11-4.13,4.09-76.26-76.26h-42.67v11.61Z"/>
  <path class="cls-2" d="M308.5,66.68l-37.81,37.76v11.74l-89.71,89.84,27.11,27.11,100.39-100.39.02-66.06Z"/>
  <polygon class="cls-2" points="246.26 100.08 160.65 185.69 132.68 157.71 246.26 44.12 246.26 100.08"/>
</svg>