<?xml version="1.0" encoding="utf-8"?>
<svg xmlns="http://www.w3.org/2000/svg" width="99" height="112" viewBox="0 0 99 112" fill="none">
  <path d="M45.4847 1.02546L3.83185 25.0523C1.45559 26.4196 0 28.9553 0 31.6898V79.7435C0 82.4781 1.46803 85.0138 3.83185 86.381L45.4847 110.408C47.8609 111.775 50.7846 111.775 53.1608 110.408L94.8137 86.381C97.1899 85.0138 98.6455 82.4781 98.6455 79.7435V31.6898C98.6455 28.9553 97.1775 26.4196 94.8137 25.0523L53.1608 1.02546C50.7846 -0.34182 47.8609 -0.34182 45.4847 1.02546Z" fill="#700428"/>
  <path d="M81.2039 78.5254L51.4696 95.6164C50.3499 96.1758 48.9441 95.343 48.9441 94.2119V59.4581C48.9441 57.7801 49.79 56.3755 51.1834 55.5303L72.5075 43.1999L81.49 38.1534C82.6097 37.594 84.0156 38.4393 84.0156 39.5579V73.4665C84.2893 75.9897 83.1695 77.6678 81.2039 78.513V78.5254ZM46.7046 18.2657L28.2172 28.8186L17.1695 35.1329C15.3157 36.1895 14.1711 38.1658 14.1711 40.2913V74.5976C14.1711 75.7163 15.577 76.5615 16.6967 76.0022L23.9872 71.515C24.547 71.2291 24.8332 70.6698 24.8332 70.1104V46.009C24.8332 44.331 25.6792 42.653 27.3587 41.8077L48.3967 29.4774C48.9565 29.2039 49.2426 28.6321 49.2426 28.0728V19.6702C49.2426 18.5515 47.8368 17.7063 46.7171 18.2657H46.7046ZM64.3835 28.0728L40.5712 41.671V41.7083L34.8483 44.9773C32.9945 46.0339 31.85 48.0102 31.85 50.1357V84.4047C31.85 85.5234 33.2558 86.3687 34.3755 85.8093L41.666 81.3222C42.2259 81.0363 42.512 80.4769 42.512 79.9176V55.5303C42.512 54.1257 43.358 52.7211 44.4777 51.8883L66.0755 39.2721C66.6353 38.9862 66.9214 38.4268 66.9214 37.8675V29.4525C66.9214 28.3338 65.5156 27.4886 64.3959 28.0479L64.3835 28.0728Z" fill="url(#paint0_linear_3214_31734)"/>
  <defs>
    <linearGradient id="paint0_linear_3214_31734" x1="0.232191" y1="48.9069" x2="76.1808" y2="92.7957" gradientUnits="userSpaceOnUse">
      <stop stop-color="#F5A0B0"/>
      <stop offset="0.504808" stop-color="#F92A57"/>
    </linearGradient>
  </defs>
</svg>